<?xml version="1.0" encoding="utf-8"?>
<!-- Generator: Adobe Illustrator 26.3.1, SVG Export Plug-In . SVG Version: 6.00 Build 0)  -->
<svg version="1.1" id="Layer_1" xmlns="http://www.w3.org/2000/svg" xmlns:xlink="http://www.w3.org/1999/xlink" x="0px" y="0px"
	 viewBox="0 0 862 207" style="enable-background:new 0 0 862 207;" xml:space="preserve">
<rect x="0.1" y="20.5" style="fill:#FF7900;" width="166.2" height="166.2"/>
<path style="fill-rule:evenodd;clip-rule:evenodd;fill:#FFFFFF;" d="M56.8,166c0,1.5,0.9,2.8,2.6,2.8c2,0,3.9-0.7,5.7-2.4
	c0-5.4,0-5.4,0-5.4C59.4,161.6,56.8,163.1,56.8,166z M65.3,170.7c-2.4,1.5-5,2.2-7.6,2.2c-4.4,0-6.7-2.8-6.7-6.5
	c0-5.2,4.6-8,14.4-9.1c0-1.1,0-1.1,0-1.1c0-1.7-1.3-2.8-3.7-2.8c-2.2,0-4.1,1.1-5.4,2.8c-4.1-2.4-4.1-2.4-4.1-2.4
	c2.2-3,5.4-4.6,9.8-4.6c5.9,0,9.4,2.6,9.4,7v16.5c-5.4,0-5.4,0-5.4,0L65.3,170.7z"/>
<path style="fill-rule:evenodd;clip-rule:evenodd;fill:#FFFFFF;" d="M75.9,150.3c5.1-0.7,5.1-0.7,5.1-0.7c0.4,2.9,0.4,2.9,0.4,2.9
	c2.9-2.2,5.1-3.3,7.9-3.3c4.8,0,7.3,2.6,7.3,7.5c0,16.2,0,16.2,0,16.2c-6.2,0-6.2,0-6.2,0c0-15.1,0-15.1,0-15.1
	c0-2.9-0.7-3.9-2.9-3.9c-1.8,0-3.7,0.7-5.7,2.4c0,16.7,0,16.7,0,16.7c-5.9,0-5.9,0-5.9,0V150.3z"/>
<path style="fill-rule:evenodd;clip-rule:evenodd;fill:#FFFFFF;" d="M141.6,158.2c0-3.1-1.8-4.8-4.6-4.8c-2.6,0-4.4,1.8-4.6,4.8
	H141.6z M137.3,173.3c-6.8,0-11-4.4-11-12.1c0-7.7,4.2-12.1,10.8-12.1c6.8,0,10.8,4.4,10.8,11.8c0,0.4-0.2,0.7-0.2,1.1
	c-15.4,0-15.4,0-15.4,0c0.2,4.4,2,6.6,5.5,6.6c2.4,0,4-0.9,5.3-2.8c4.4,2.4,4.4,2.4,4.4,2.4C145.4,171.6,141.9,173.3,137.3,173.3z"
	/>
<path style="fill-rule:evenodd;clip-rule:evenodd;fill:#FFFFFF;" d="M20.6,154.2c-4.6,0-5.3,4.1-5.3,7c0,3,0.7,7,5.3,7
	c4.6,0,5.5-3.9,5.5-7C26.1,158.4,25.2,154.2,20.6,154.2z M20.6,173.3c-5.9,0-11.4-3.9-11.4-12.2c0-8.3,5.5-11.9,11.4-11.9
	c5.9,0,11.4,3.7,11.4,11.9C32,169.4,26.5,173.3,20.6,173.3z"/>
<path style="fill-rule:evenodd;clip-rule:evenodd;fill:#FFFFFF;" d="M36.3,149.9c5.7,0,5.7,0,5.7,0c0,2.6,0,2.6,0,2.6
	c1.1-1.5,3.9-3.3,6.3-3.3c0.4,0,0.7,0,0.9,0.2c0,5.7,0,5.7,0,5.7H49c-2.6,0-5.7,0.2-6.6,2.4c0,15.3,0,15.3,0,15.3
	c-6.1,0-6.1,0-6.1,0V149.9z"/>
<path style="fill-rule:evenodd;clip-rule:evenodd;fill:#FFFFFF;" d="M122.4,149.7c0,22,0,22,0,22c0,3.7-0.2,10.1-11.2,10.3
	c-4.6,0-8.8-1.8-9.7-5.7c5.9-1.1,5.9-1.1,5.9-1.1c0.4,1.1,1.1,2.2,4.4,2.2c3.3,0,4.8-1.3,4.8-5.1c0-2.6,0-2.6,0-2.6
	c-0.2-0.2-0.2-0.2-0.2-0.2c-0.9,1.8-2.4,3.5-5.9,3.5c-5.5,0-9.7-3.7-9.7-11.6c0-7.7,4.4-12.1,9.2-12.1c4.6,0,6.4,2.2,6.8,3.3
	c0.4-2.9,0.4-2.9,0.4-2.9H122.4z M111.6,167.9c4.6,0,5.1-4.6,5.1-7.7c0-3.7-1.8-6.6-5.1-6.6c-2.2,0-4.6,1.5-4.6,6.8
	C107,163.3,107.2,167.9,111.6,167.9z"/>
<path style="fill-rule:evenodd;clip-rule:evenodd;fill:#FFFFFF;" d="M159.9,148.4h-1.3v-6.5l-2.2,6.5h-0.9l-2.6-6.5h-0.4v6.5h-0.9
	V141h1.7l2.6,5.6l2.2-5.6h1.7V148.4z M150,141.9h-2.2v6.5h-1.3v-6.5h-2.6V141h6V141.9z"/>
<g>
	<path style="fill:#FF7900;" d="M313.5,86.6c-5.1,5.2-12.4,7.9-22,7.9c-9.6,0-17-2.6-22-7.9c-6.8-6.4-10.2-15.7-10.2-27.8
		c0-12.3,3.4-21.6,10.2-27.8c5.1-5.2,12.4-7.9,22-7.9c9.6,0,17,2.6,22,7.9c6.8,6.2,10.2,15.4,10.2,27.8
		C323.7,70.9,320.3,80.2,313.5,86.6z M304.7,76.4c3.3-4.1,4.9-10,4.9-17.5c0-7.5-1.6-13.4-4.9-17.5c-3.3-4.1-7.7-6.2-13.3-6.2
		c-5.6,0-10,2.1-13.3,6.2s-5,10-5,17.5s1.7,13.4,5,17.5s7.8,6.2,13.3,6.2C297,82.6,301.5,80.5,304.7,76.4z"/>
	<path style="fill:#FF7900;" d="M361,41.7c0.2,0,0.5,0,1.1,0.1v13.3c-0.8-0.1-1.6-0.2-2.2-0.2c-0.6,0-1.2,0-1.6,0
		c-5.2,0-8.8,1.7-10.5,5.1c-1,1.9-1.5,4.9-1.5,8.9v23.8h-13.1V42.8h12.4v8.7c2-3.3,3.8-5.6,5.2-6.8c2.4-2,5.6-3.1,9.5-3.1
		C360.6,41.7,360.8,41.7,361,41.7z"/>
	<path style="fill:#FF7900;" d="M389.5,62.3c2.4-0.3,4.2-0.7,5.2-1.1c1.9-0.8,2.8-2,2.8-3.7c0-2-0.7-3.4-2.2-4.2
		c-1.4-0.8-3.5-1.2-6.3-1.2c-3.1,0-5.3,0.8-6.6,2.3c-0.9,1.1-1.5,2.6-1.9,4.6H368c0.3-4.4,1.5-7.9,3.7-10.7
		c3.5-4.4,9.4-6.6,17.8-6.6c5.5,0,10.3,1.1,14.6,3.2c4.2,2.2,6.4,6.2,6.4,12.2V80c0,1.6,0,3.5,0.1,5.8c0.1,1.7,0.3,2.9,0.8,3.5
		c0.4,0.6,1.1,1.1,1.9,1.5v1.9H399c-0.4-1-0.7-1.9-0.8-2.8c-0.2-0.9-0.3-1.9-0.4-3c-1.8,1.9-3.9,3.6-6.2,5c-2.8,1.6-6,2.4-9.6,2.4
		c-4.5,0-8.3-1.3-11.2-3.9s-4.4-6.2-4.4-10.9c0-6.1,2.4-10.5,7.1-13.3c2.6-1.5,6.4-2.6,11.5-3.2L389.5,62.3z M397.4,68.4
		c-0.8,0.5-1.7,0.9-2.5,1.3c-0.8,0.3-2,0.6-3.5,0.9l-3,0.5c-2.8,0.5-4.8,1.1-6,1.8c-2,1.2-3.1,3-3.1,5.5c0,2.2,0.6,3.8,1.9,4.8
		c1.3,1,2.8,1.5,4.6,1.5c2.8,0,5.5-0.8,7.9-2.5c2.4-1.6,3.6-4.6,3.7-9V68.4z"/>
	<path style="fill:#FF7900;" d="M461.9,45.7c3.3,2.7,4.9,7.2,4.9,13.4v33.5h-13.3V62.3c0-2.6-0.3-4.6-1-6c-1.3-2.6-3.7-3.8-7.3-3.8
		c-4.4,0-7.4,1.9-9,5.6c-0.8,2-1.3,4.5-1.3,7.6v26.9h-13V42.9h12.6v7.3c1.7-2.6,3.2-4.4,4.7-5.5c2.7-2,6-3,10.1-3
		C454.4,41.7,458.6,43,461.9,45.7z"/>
	<path style="fill:#FF7900;" d="M503.5,42.8c3.2,1.3,5.7,3.7,7.7,7.2v-7.2h12.7V90c0,6.4-1.1,11.3-3.2,14.5
		c-3.7,5.6-10.8,8.4-21.4,8.4c-6.4,0-11.5-1.2-15.6-3.7c-4-2.5-6.2-6.2-6.7-11.2h14.2c0.4,1.5,1,2.6,1.8,3.3
		c1.4,1.2,3.8,1.8,7.1,1.8c4.7,0,7.8-1.6,9.4-4.7c1-2,1.6-5.4,1.6-10.1v-3.2c-1.2,2.1-2.6,3.7-4,4.8c-2.6,2-6,3-10.1,3
		c-6.4,0-11.5-2.2-15.3-6.7s-5.7-10.6-5.7-18.2c0-7.4,1.8-13.6,5.5-18.6c3.7-5,8.9-7.6,15.6-7.6C499.4,41.7,501.6,42,503.5,42.8z
		 M507.9,78.5c2.1-2.3,3.1-6,3.1-11c0-4.7-1-8.3-3-10.8c-2-2.5-4.6-3.7-8-3.7c-4.5,0-7.7,2.1-9.4,6.4c-0.9,2.3-1.4,5.1-1.4,8.4
		c0,2.9,0.5,5.5,1.5,7.7c1.8,4.2,4.9,6.3,9.5,6.3C503.3,81.9,505.8,80.8,507.9,78.5z"/>
	<path style="fill:#FF7900;" d="M568.4,43.8c3.5,1.6,6.3,4,8.6,7.4c2,3,3.4,6.4,4,10.3c0.3,2.3,0.5,5.6,0.4,9.9h-36.2
		c0.2,5,1.9,8.5,5.2,10.5c2,1.2,4.4,1.9,7.2,1.9c3,0,5.4-0.8,7.2-2.3c1-0.8,1.9-2,2.7-3.4h13.3c-0.3,3-2,6-4.8,9
		c-4.5,4.8-10.7,7.3-18.7,7.3c-6.6,0-12.5-2-17.5-6.1c-5.1-4.1-7.6-10.7-7.6-19.9c0-8.6,2.3-15.2,6.9-19.8
		c4.6-4.6,10.5-6.9,17.8-6.9C561,41.5,564.9,42.3,568.4,43.8z M548.9,55.1c-1.8,1.9-3,4.5-3.5,7.7h22.4c-0.2-3.5-1.4-6.1-3.5-7.9
		s-4.6-2.7-7.7-2.7C553.4,52.2,550.8,53.2,548.9,55.1z"/>
</g>
<g>
	<path d="M301.1,120.3c4.7,1.6,8.5,4.4,11.5,8.5c2.3,3.3,3.9,7,4.8,10.9c0.9,3.9,1.3,7.6,1.3,11.1c0,8.9-1.8,16.5-5.4,22.7
		c-4.9,8.4-12.4,12.6-22.6,12.6h-29v-67.3h29C294.9,118.9,298.4,119.3,301.1,120.3z M275.3,130.5v43.9h13c6.6,0,11.3-3.3,13.9-9.8
		c1.4-3.6,2.1-7.9,2.1-12.8c0-6.8-1.1-12.1-3.2-15.8c-2.1-3.7-6.4-5.5-12.8-5.5H275.3z"/>
	<path d="M341.5,130.4h-13.2v-12h13.2V130.4z M328.3,136.3h13.2v49.8h-13.2V136.3z"/>
	<path d="M378.8,136.3c3.2,1.3,5.7,3.7,7.7,7.2v-7.2h12.7v47.2c0,6.4-1.1,11.3-3.2,14.5c-3.7,5.6-10.8,8.4-21.4,8.4
		c-6.4,0-11.5-1.2-15.6-3.7c-4-2.5-6.2-6.2-6.7-11.2h14.2c0.4,1.5,1,2.6,1.8,3.3c1.4,1.2,3.8,1.8,7.1,1.8c4.7,0,7.8-1.6,9.4-4.7
		c1-2,1.6-5.4,1.6-10.1v-3.2c-1.2,2.1-2.6,3.7-4,4.8c-2.6,2-6,3-10.1,3c-6.4,0-11.5-2.2-15.3-6.7s-5.7-10.6-5.7-18.2
		c0-7.4,1.8-13.6,5.5-18.6c3.7-5,8.9-7.6,15.6-7.6C374.7,135.1,376.9,135.5,378.8,136.3z M383.2,172c2.1-2.3,3.1-6,3.1-11
		c0-4.7-1-8.3-3-10.8c-2-2.5-4.6-3.7-8-3.7c-4.5,0-7.7,2.1-9.4,6.4c-0.9,2.3-1.4,5.1-1.4,8.4c0,2.9,0.5,5.5,1.5,7.7
		c1.8,4.2,4.9,6.3,9.5,6.3C378.5,175.4,381.1,174.3,383.2,172z"/>
	<path d="M424.6,130.4h-13.2v-12h13.2V130.4z M411.4,136.3h13.2v49.8h-13.2V136.3z"/>
	<path d="M432.1,146.1v-9.3h6.9v-13.9h12.9v13.9h8.1v9.3h-8.1v26.3c0,2,0.3,3.3,0.8,3.8c0.5,0.5,2.1,0.8,4.7,0.8c0.4,0,0.8,0,1.3,0
		c0.4,0,0.9,0,1.3-0.1v9.7l-6.2,0.2c-6.1,0.2-10.3-0.9-12.6-3.2c-1.5-1.5-2.2-3.8-2.2-6.9v-30.6H432.1z"/>
	<path d="M488.1,155.8c2.4-0.3,4.2-0.7,5.2-1.1c1.9-0.8,2.8-2,2.8-3.7c0-2-0.7-3.4-2.2-4.2c-1.4-0.8-3.5-1.2-6.3-1.2
		c-3.1,0-5.3,0.8-6.6,2.3c-0.9,1.1-1.5,2.6-1.9,4.6h-12.6c0.3-4.4,1.5-7.9,3.7-10.7c3.5-4.4,9.4-6.6,17.8-6.6
		c5.5,0,10.3,1.1,14.6,3.2c4.2,2.2,6.4,6.2,6.4,12.2v22.8c0,1.6,0,3.5,0.1,5.8c0.1,1.7,0.3,2.9,0.8,3.5c0.4,0.6,1.1,1.1,1.9,1.5v1.9
		h-14.2c-0.4-1-0.7-1.9-0.8-2.8c-0.2-0.9-0.3-1.9-0.4-3c-1.8,1.9-3.9,3.6-6.2,5c-2.8,1.6-6,2.4-9.6,2.4c-4.5,0-8.3-1.3-11.2-3.9
		s-4.4-6.2-4.4-10.9c0-6.1,2.4-10.5,7.1-13.3c2.6-1.5,6.4-2.6,11.5-3.2L488.1,155.8z M496,161.9c-0.8,0.5-1.7,0.9-2.5,1.3
		c-0.8,0.3-2,0.6-3.5,0.9l-3,0.5c-2.8,0.5-4.8,1.1-6,1.8c-2,1.2-3.1,3-3.1,5.5c0,2.2,0.6,3.8,1.9,4.8c1.3,1,2.8,1.5,4.6,1.5
		c2.8,0,5.5-0.8,7.9-2.5c2.4-1.6,3.6-4.6,3.7-9V161.9z"/>
	<path d="M533.6,186.1h-13v-67.3h13V186.1z"/>
	<path d="M579.8,125.8c5.4-5.5,12.3-8.3,20.7-8.3c11.2,0,19.4,3.7,24.6,11.1c2.9,4.2,4.4,8.4,4.6,12.6h-14.1c-0.9-3.2-2-5.7-3.4-7.3
		c-2.5-2.9-6.2-4.4-11.1-4.4c-5,0-9,2.1-11.9,6.2s-4.3,10-4.3,17.5c0,7.5,1.5,13.2,4.6,17s6.9,5.6,11.6,5.6c4.8,0,8.5-1.6,11-4.8
		c1.4-1.7,2.6-4.3,3.5-7.8h14c-1.2,7.3-4.3,13.3-9.2,17.9c-5,4.6-11.3,6.9-19,6.9c-9.6,0-17.1-3.1-22.6-9.3
		c-5.5-6.2-8.2-14.8-8.2-25.7C570.4,141.2,573.6,132.2,579.8,125.8z"/>
	<path d="M672.3,137.3c3.5,1.6,6.3,4,8.6,7.4c2,3,3.4,6.4,4,10.3c0.3,2.3,0.5,5.6,0.4,9.9H649c0.2,5,1.9,8.5,5.2,10.5
		c2,1.2,4.4,1.9,7.2,1.9c3,0,5.4-0.8,7.2-2.3c1-0.8,1.9-2,2.7-3.4h13.3c-0.3,3-2,6-4.8,9c-4.5,4.8-10.7,7.3-18.7,7.3
		c-6.6,0-12.5-2-17.5-6.1c-5.1-4.1-7.6-10.7-7.6-19.9c0-8.6,2.3-15.2,6.9-19.8c4.6-4.6,10.5-6.9,17.8-6.9
		C664.9,135,668.8,135.8,672.3,137.3z M652.8,148.6c-1.8,1.9-3,4.5-3.5,7.7h22.4c-0.2-3.5-1.4-6.1-3.5-7.9s-4.6-2.7-7.7-2.7
		C657.2,145.7,654.6,146.7,652.8,148.6z"/>
	<path d="M731.9,139.2c3.3,2.7,4.9,7.2,4.9,13.4v33.5h-13.3v-30.3c0-2.6-0.3-4.6-1-6c-1.3-2.6-3.7-3.8-7.3-3.8c-4.4,0-7.4,1.9-9,5.6
		c-0.8,2-1.3,4.5-1.3,7.6v26.9h-13v-49.7h12.6v7.3c1.7-2.6,3.2-4.4,4.7-5.5c2.7-2,6-3,10.1-3C724.5,135.1,728.7,136.5,731.9,139.2z"
		/>
	<path d="M743.8,146.1v-9.3h6.9v-13.9h12.9v13.9h8.1v9.3h-8.1v26.3c0,2,0.3,3.3,0.8,3.8c0.5,0.5,2.1,0.8,4.7,0.8c0.4,0,0.8,0,1.3,0
		c0.4,0,0.9,0,1.3-0.1v9.7l-6.2,0.2c-6.1,0.2-10.3-0.9-12.6-3.2c-1.5-1.5-2.2-3.8-2.2-6.9v-30.6H743.8z"/>
	<path d="M812.5,137.3c3.5,1.6,6.3,4,8.6,7.4c2,3,3.4,6.4,4,10.3c0.3,2.3,0.5,5.6,0.4,9.9h-36.2c0.2,5,1.9,8.5,5.2,10.5
		c2,1.2,4.4,1.9,7.2,1.9c3,0,5.4-0.8,7.2-2.3c1-0.8,1.9-2,2.7-3.4h13.3c-0.3,3-2,6-4.8,9c-4.5,4.8-10.7,7.3-18.7,7.3
		c-6.6,0-12.5-2-17.5-6.1c-5.1-4.1-7.6-10.7-7.6-19.9c0-8.6,2.3-15.2,6.9-19.8c4.6-4.6,10.5-6.9,17.8-6.9
		C805.1,135,809,135.8,812.5,137.3z M793,148.6c-1.8,1.9-3,4.5-3.5,7.7H812c-0.2-3.5-1.4-6.1-3.5-7.9s-4.6-2.7-7.7-2.7
		C797.5,145.7,794.9,146.7,793,148.6z"/>
	<path d="M859.7,135.2c0.2,0,0.5,0,1.1,0.1v13.3c-0.8-0.1-1.6-0.2-2.2-0.2c-0.6,0-1.2,0-1.6,0c-5.2,0-8.8,1.7-10.5,5.1
		c-1,1.9-1.5,4.9-1.5,8.9v23.8h-13.1v-49.8h12.4v8.7c2-3.3,3.8-5.6,5.2-6.8c2.4-2,5.6-3.1,9.5-3.1
		C859.3,135.1,859.5,135.2,859.7,135.2z"/>
</g>
</svg>
